{"scene":0,"asset":{"generator":"ImageToStl.com","version":"2.0"},"scenes":[{"name":"Scene","nodes":[0]}],"nodes":[{"name":"Node0","children":[1,2,3,4,5,6,7,8,9,10,11,12,13,14,15,16,17,18]},{"name":"Node1","mesh":0},{"name":"Node2","mesh":1},{"name":"Node3","mesh":2},{"name":"Node4","mesh":3},{"name":"Node5","mesh":4},{"name":"Node6","mesh":5},{"name":"Node7","mesh":6},{"name":"Node8","mesh":7},{"name":"Node9","mesh":8},{"name":"Node10","mesh":9},{"name":"Node11","mesh":10},{"name":"Node12","mesh":11},{"name":"Node13","mesh":12},{"name":"Node14","mesh":13},{"name":"Node15","mesh":14},{"name":"Node16","mesh":15},{"name":"Node17","mesh":16},{"name":"Node18","mesh":17}],"materials":[{"name":"mat0","pbrMetallicRoughness":{"baseColorFactor":[0.64,0.64,0.64,1.0],"metallicFactor":0.5,"roughnessFactor":0.609375},"emissiveFactor":[0.0,0.0,0.0],"doubleSided":true},{"name":"mat1","pbrMetallicRoughness":{"baseColorFactor":[0.50133,0.25226,0.19792,1.0],"metallicFactor":0.5,"roughnessFactor":0.609375},"emissiveFactor":[0.0,0.0,0.0],"doubleSided":true},{"name":"mat2","pbrMetallicRoughness":{"baseColorFactor":[0.12406,0.37713,0.64,1.0],"metallicFactor":0.5,"roughnessFactor":0.609375},"emissiveFactor":[0.0,0.0,0.0],"doubleSided":true},{"name":"mat3","pbrMetallicRoughness":{"baseColorFactor":[0.64,0.64,0.64,1.0],"metallicFactor":0.5,"roughnessFactor":0.609375},"emissiveFactor":[0.0,0.0,0.0],"doubleSided":true},{"name":"mat4","pbrMetallicRoughness":{"baseColorFactor":[0.64,0.64,0.64,1.0],"metallicFactor":0.5,"roughnessFactor":0.609375},"emissiveFactor":[0.0,0.0,0.0],"doubleSided":true},{"name":"mat5","pbrMetallicRoughness":{"baseColorFactor":[0.64,0.64,0.64,1.0],"metallicFactor":0.5,"roughnessFactor":0.609375},"emissiveFactor":[0.0,0.0,0.0],"doubleSided":true},{"name":"mat6","pbrMetallicRoughness":{"baseColorFactor":[0.64,0.64,0.64,1.0],"metallicFactor":0.5,"roughnessFactor":0.609375},"emissiveFactor":[0.0,0.0,0.0],"doubleSided":true},{"name":"mat7","pbrMetallicRoughness":{"baseColorFactor":[0.64,0.64,0.64,1.0],"metallicFactor":0.5,"roughnessFactor":0.609375},"emissiveFactor":[0.0,0.0,0.0],"doubleSided":true},{"name":"mat8","pbrMetallicRoughness":{"baseColorFactor":[0.64,0.64,0.64,1.0],"metallicFactor":0.5,"roughnessFactor":0.609375},"emissiveFactor":[0.0,0.0,0.0],"doubleSided":true},{"name":"mat9","pbrMetallicRoughness":{"baseColorFactor":[0.64,0.64,0.64,1.0],"metallicFactor":0.5,"roughnessFactor":0.609375},"emissiveFactor":[0.0,0.0,0.0],"doubleSided":true}],"meshes":[{"name":"Mesh0","primitives":[{"indices":3,"material":0,"attributes":{"POSITION":0,"NORMAL":1,"TEXCOORD_0":2}}]},{"name":"Mesh0","primitives":[{"indices":7,"material":1,"attributes":{"POSITION":4,"NORMAL":5,"TEXCOORD_0":6}},{"indices":8,"material":2,"attributes":{"POSITION":4,"NORMAL":5,"TEXCOORD_0":6}}]},{"name":"Mesh0","primitives":[{"indices":12,"material":0,"attributes":{"POSITION":9,"NORMAL":10,"TEXCOORD_0":11}},{"indices":13,"material":1,"attributes":{"POSITION":9,"NORMAL":10,"TEXCOORD_0":11}},{"indices":14,"material":2,"attributes":{"POSITION":9,"NORMAL":10,"TEXCOORD_0":11}}]},{"name":"Mesh0","primitives":[{"indices":18,"material":0,"attributes":{"POSITION":15,"NORMAL":16,"TEXCOORD_0":17}},{"indices":19,"material":1,"attributes":{"POSITION":15,"NORMAL":16,"TEXCOORD_0":17}},{"indices":20,"material":2,"attributes":{"POSITION":15,"NORMAL":16,"TEXCOORD_0":17}},{"indices":21,"material":3,"attributes":{"POSITION":15,"NORMAL":16,"TEXCOORD_0":17}}]},{"name":"Mesh0","primitives":[{"indices":25,"material":4,"attributes":{"POSITION":22,"NORMAL":23,"TEXCOORD_0":24}}]},{"name":"Mesh0","primitives":[{"indices":29,"material":4,"attributes":{"POSITION":26,"NORMAL":27,"TEXCOORD_0":28}},{"indices":30,"material":5,"attributes":{"POSITION":26,"NORMAL":27,"TEXCOORD_0":28}}]},{"name":"Mesh0","primitives":[{"indices":34,"material":5,"attributes":{"POSITION":31,"NORMAL":32,"TEXCOORD_0":33}},{"indices":35,"material":6,"attributes":{"POSITION":31,"NORMAL":32,"TEXCOORD_0":33}}]},{"name":"Mesh0","primitives":[{"indices":39,"material":0,"attributes":{"POSITION":36,"NORMAL":37,"TEXCOORD_0":38}}]},{"name":"Mesh0","primitives":[{"indices":43,"material":0,"attributes":{"POSITION":40,"NORMAL":41,"TEXCOORD_0":42}},{"indices":44,"material":2,"attributes":{"POSITION":40,"NORMAL":41,"TEXCOORD_0":42}}]},{"name":"Mesh0","primitives":[{"indices":48,"material":0,"attributes":{"POSITION":45,"NORMAL":46,"TEXCOORD_0":47}}]},{"name":"Mesh0","primitives":[{"indices":52,"material":0,"attributes":{"POSITION":49,"NORMAL":50,"TEXCOORD_0":51}}]},{"name":"Mesh0","primitives":[{"indices":56,"material":0,"attributes":{"POSITION":53,"NORMAL":54,"TEXCOORD_0":55}},{"indices":57,"material":7,"attributes":{"POSITION":53,"NORMAL":54,"TEXCOORD_0":55}}]},{"name":"Mesh0","primitives":[{"indices":61,"material":0,"attributes":{"POSITION":58,"NORMAL":59,"TEXCOORD_0":60}},{"indices":62,"material":7,"attributes":{"POSITION":58,"NORMAL":59,"TEXCOORD_0":60}}]},{"name":"Mesh0","primitives":[{"indices":66,"material":8,"attributes":{"POSITION":63,"NORMAL":64,"TEXCOORD_0":65}}]},{"name":"Mesh0","primitives":[{"indices":70,"material":9,"attributes":{"POSITION":67,"NORMAL":68,"TEXCOORD_0":69}}]},{"name":"Mesh0","primitives":[{"indices":74,"material":0,"attributes":{"POSITION":71,"NORMAL":72,"TEXCOORD_0":73}}]},{"name":"Mesh0","primitives":[{"indices":78,"material":4,"attributes":{"POSITION":75,"NORMAL":76,"TEXCOORD_0":77}},{"indices":79,"material":8,"attributes":{"POSITION":75,"NORMAL":76,"TEXCOORD_0":77}}]},{"name":"Mesh0","primitives":[{"indices":83,"material":0,"attributes":{"POSITION":80,"NORMAL":81,"TEXCOORD_0":82}}]}],"accessors":[{"bufferView":0,"componentType":5126,"count":814,"type":"VEC3","min":[19.81173,-4.404178,16.35506],"max":[19.98729,0.45754093,30.806007]},{"bufferView":1,"componentType":5126,"count":814,"type":"VEC3"},{"bufferView":2,"componentType":5126,"count":814,"type":"VEC2"},{"bufferView":3,"componentType":5123,"count":6948,"type":"SCALAR"},{"bufferView":4,"componentType":5126,"count":72,"type":"VEC3","min":[6.0795226,41.893383,-8.873229],"max":[9.151801,45.113914,-2.346902]},{"bufferView":5,"componentType":5126,"count":72,"type":"VEC3"},{"bufferView":6,"componentType":5126,"count":72,"type":"VEC2"},{"bufferView":7,"componentType":5123,"count":288,"type":"SCALAR"},{"bufferView":8,"componentType":5123,"count":36,"type":"SCALAR"},{"bufferView":9,"componentType":5126,"count":694,"type":"VEC3","min":[17.792242,-3.3761392,10.286615],"max":[24.544521,4.0513654,10.74971]},{"bufferView":10,"componentType":5126,"count":694,"type":"VEC3"},{"bufferView":11,"componentType":5126,"count":694,"type":"VEC2"},{"bufferView":12,"componentType":5123,"count":4140,"type":"SCALAR"},{"bufferView":13,"componentType":5123,"count":936,"type":"SCALAR"},{"bufferView":14,"componentType":5123,"count":324,"type":"SCALAR"},{"bufferView":15,"componentType":5126,"count":35382,"type":"VEC3","min":[-23.619135,-3.3761404,-25.235727],"max":[28.481497,34.436604,30.099138]},{"bufferView":16,"componentType":5126,"count":35382,"type":"VEC3"},{"bufferView":17,"componentType":5126,"count":35382,"type":"VEC2"},{"bufferView":18,"componentType":5123,"count":80460,"type":"SCALAR"},{"bufferView":19,"componentType":5123,"count":70920,"type":"SCALAR"},{"bufferView":20,"componentType":5123,"count":10584,"type":"SCALAR"},{"bufferView":21,"componentType":5123,"count":3672,"type":"SCALAR"},{"bufferView":22,"componentType":5126,"count":1597,"type":"VEC3","min":[-23.565445,-4.388981,-25.084713],"max":[28.427076,6.752279,30.01386]},{"bufferView":23,"componentType":5126,"count":1597,"type":"VEC3"},{"bufferView":24,"componentType":5126,"count":1597,"type":"VEC2"},{"bufferView":25,"componentType":5123,"count":8190,"type":"SCALAR"},{"bufferView":26,"componentType":5126,"count":3185,"type":"VEC3","min":[-23.565441,-4.3889856,-25.084713],"max":[28.427084,47.434734,30.01386]},{"bufferView":27,"componentType":5126,"count":3185,"type":"VEC3"},{"bufferView":28,"componentType":5126,"count":3185,"type":"VEC2"},{"bufferView":29,"componentType":5123,"count":72,"type":"SCALAR"},{"bufferView":30,"componentType":5123,"count":20529,"type":"SCALAR"},{"bufferView":31,"componentType":5126,"count":984,"type":"VEC3","min":[-23.565445,5.4018273,-25.084713],"max":[28.42708,27.009111,30.01386]},{"bufferView":32,"componentType":5126,"count":984,"type":"VEC3"},{"bufferView":33,"componentType":5126,"count":984,"type":"VEC2"},{"bufferView":34,"componentType":5123,"count":3240,"type":"SCALAR"},{"bufferView":35,"componentType":5123,"count":2376,"type":"SCALAR"},{"bufferView":36,"componentType":5126,"count":384,"type":"VEC3","min":[-23.700487,6.077051,-25.219763],"max":[28.562126,27.00911,30.148907]},{"bufferView":37,"componentType":5126,"count":384,"type":"VEC3"},{"bufferView":38,"componentType":5126,"count":384,"type":"VEC2"},{"bufferView":39,"componentType":5123,"count":1728,"type":"SCALAR"},{"bufferView":40,"componentType":5126,"count":9975,"type":"VEC3","min":[-23.822027,5.692168,-25.333801],"max":[28.682732,30.722853,30.270447]},{"bufferView":41,"componentType":5126,"count":9975,"type":"VEC3"},{"bufferView":42,"componentType":5126,"count":9975,"type":"VEC2"},{"bufferView":43,"componentType":5123,"count":47520,"type":"SCALAR"},{"bufferView":44,"componentType":5123,"count":4320,"type":"SCALAR"},{"bufferView":45,"componentType":5126,"count":3209,"type":"VEC3","min":[-23.57328,35.44945,-25.152233],"max":[28.430456,47.502262,30.047623]},{"bufferView":46,"componentType":5126,"count":3209,"type":"VEC3"},{"bufferView":47,"componentType":5126,"count":3209,"type":"VEC2"},{"bufferView":48,"componentType":5123,"count":15804,"type":"SCALAR"},{"bufferView":49,"componentType":5126,"count":456,"type":"VEC3","min":[-13.926572,36.934612,-25.08471],"max":[16.082296,37.981552,30.01386]},{"bufferView":50,"componentType":5126,"count":456,"type":"VEC3"},{"bufferView":51,"componentType":5126,"count":456,"type":"VEC2"},{"bufferView":52,"componentType":5123,"count":2052,"type":"SCALAR"},{"bufferView":53,"componentType":5126,"count":192,"type":"VEC3","min":[7.9676843,4.0513654,30.01386],"max":[11.404593,27.515127,30.135426]},{"bufferView":54,"componentType":5126,"count":192,"type":"VEC3"},{"bufferView":55,"componentType":5126,"count":192,"type":"VEC2"},{"bufferView":56,"componentType":5123,"count":864,"type":"SCALAR"},{"bufferView":57,"componentType":5123,"count":54,"type":"SCALAR"},{"bufferView":58,"componentType":5126,"count":390,"type":"VEC3","min":[5.570623,4.0513654,-25.206274],"max":[28.548645,30.047626,-4.895403]},{"bufferView":59,"componentType":5126,"count":390,"type":"VEC3"},{"bufferView":60,"componentType":5126,"count":390,"type":"VEC2"},{"bufferView":61,"componentType":5123,"count":1728,"type":"SCALAR"},{"bufferView":62,"componentType":5123,"count":108,"type":"SCALAR"},{"bufferView":63,"componentType":5126,"count":45,"type":"VEC3","min":[16.036652,-4.388981,10.8036375],"max":[26.292543,-3.3761394,30.01386]},{"bufferView":64,"componentType":5126,"count":45,"type":"VEC3"},{"bufferView":65,"componentType":5126,"count":45,"type":"VEC2"},{"bufferView":66,"componentType":5123,"count":234,"type":"SCALAR"},{"bufferView":67,"componentType":5126,"count":1297,"type":"VEC3","min":[-3.9000435,40.34161,-12.310995],"max":[19.097595,50.0,15.059492]},{"bufferView":68,"componentType":5126,"count":1297,"type":"VEC3"},{"bufferView":69,"componentType":5126,"count":1297,"type":"VEC2"},{"bufferView":70,"componentType":5123,"count":7380,"type":"SCALAR"},{"bufferView":71,"componentType":5126,"count":2784,"type":"VEC3","min":[-14.5431795,-4.388981,-17.782513],"max":[16.65049,37.04673,23.519617]},{"bufferView":72,"componentType":5126,"count":2784,"type":"VEC3"},{"bufferView":73,"componentType":5126,"count":2784,"type":"VEC2"},{"bufferView":74,"componentType":5123,"count":20592,"type":"SCALAR"},{"bufferView":75,"componentType":5126,"count":185,"type":"VEC3","min":[-23.565445,-4.3889804,-25.017187],"max":[28.359556,-3.3727975,29.946342]},{"bufferView":76,"componentType":5126,"count":185,"type":"VEC3"},{"bufferView":77,"componentType":5126,"count":185,"type":"VEC2"},{"bufferView":78,"componentType":5123,"count":324,"type":"SCALAR"},{"bufferView":79,"componentType":5123,"count":594,"type":"SCALAR"},{"bufferView":80,"componentType":5126,"count":368,"type":"VEC3","min":[-23.565441,36.960236,-17.874739],"max":[28.430452,37.30447,23.610382]},{"bufferView":81,"componentType":5126,"count":368,"type":"VEC3"},{"bufferView":82,"componentType":5126,"count":368,"type":"VEC2"},{"bufferView":83,"componentType":5123,"count":2448,"type":"SCALAR"}],"bufferViews":[{"target":34962,"buffer":0,"byteLength":9768,"byteOffset":0},{"target":34962,"buffer":0,"byteLength":9768,"byteOffset":9768},{"target":34962,"buffer":0,"byteLength":6512,"byteOffset":19536},{"target":34963,"buffer":0,"byteLength":13896,"byteOffset":26048},{"target":34962,"buffer":0,"byteLength":864,"byteOffset":39944},{"target":34962,"buffer":0,"byteLength":864,"byteOffset":40808},{"target":34962,"buffer":0,"byteLength":576,"byteOffset":41672},{"target":34963,"buffer":0,"byteLength":576,"byteOffset":42248},{"target":34963,"buffer":0,"byteLength":72,"byteOffset":42824},{"target":34962,"buffer":0,"byteLength":8328,"byteOffset":42896},{"target":34962,"buffer":0,"byteLength":8328,"byteOffset":51224},{"target":34962,"buffer":0,"byteLength":5552,"byteOffset":59552},{"target":34963,"buffer":0,"byteLength":8280,"byteOffset":65104},{"target":34963,"buffer":0,"byteLength":1872,"byteOffset":73384},{"target":34963,"buffer":0,"byteLength":648,"byteOffset":75256},{"target":34962,"buffer":0,"byteLength":424584,"byteOffset":75904},{"target":34962,"buffer":0,"byteLength":424584,"byteOffset":500488},{"target":34962,"buffer":0,"byteLength":283056,"byteOffset":925072},{"target":34963,"buffer":0,"byteLength":160920,"byteOffset":1208128},{"target":34963,"buffer":0,"byteLength":141840,"byteOffset":1369048},{"target":34963,"buffer":0,"byteLength":21168,"byteOffset":1510888},{"target":34963,"buffer":0,"byteLength":7344,"byteOffset":1532056},{"target":34962,"buffer":0,"byteLength":19164,"byteOffset":1539400},{"target":34962,"buffer":0,"byteLength":19164,"byteOffset":1558564},{"target":34962,"buffer":0,"byteLength":12776,"byteOffset":1577728},{"target":34963,"buffer":0,"byteLength":16380,"byteOffset":1590504},{"target":34962,"buffer":0,"byteLength":38220,"byteOffset":1606884},{"target":34962,"buffer":0,"byteLength":38220,"byteOffset":1645104},{"target":34962,"buffer":0,"byteLength":25480,"byteOffset":1683324},{"target":34963,"buffer":0,"byteLength":144,"byteOffset":1708804},{"target":34963,"buffer":0,"byteLength":41058,"byteOffset":1708948},{"target":34962,"buffer":0,"byteLength":11808,"byteOffset":1750008},{"target":34962,"buffer":0,"byteLength":11808,"byteOffset":1761816},{"target":34962,"buffer":0,"byteLength":7872,"byteOffset":1773624},{"target":34963,"buffer":0,"byteLength":6480,"byteOffset":1781496},{"target":34963,"buffer":0,"byteLength":4752,"byteOffset":1787976},{"target":34962,"buffer":0,"byteLength":4608,"byteOffset":1792728},{"target":34962,"buffer":0,"byteLength":4608,"byteOffset":1797336},{"target":34962,"buffer":0,"byteLength":3072,"byteOffset":1801944},{"target":34963,"buffer":0,"byteLength":3456,"byteOffset":1805016},{"target":34962,"buffer":0,"byteLength":119700,"byteOffset":1808472},{"target":34962,"buffer":0,"byteLength":119700,"byteOffset":1928172},{"target":34962,"buffer":0,"byteLength":79800,"byteOffset":2047872},{"target":34963,"buffer":0,"byteLength":95040,"byteOffset":2127672},{"target":34963,"buffer":0,"byteLength":8640,"byteOffset":2222712},{"target":34962,"buffer":0,"byteLength":38508,"byteOffset":2231352},{"target":34962,"buffer":0,"byteLength":38508,"byteOffset":2269860},{"target":34962,"buffer":0,"byteLength":25672,"byteOffset":2308368},{"target":34963,"buffer":0,"byteLength":31608,"byteOffset":2334040},{"target":34962,"buffer":0,"byteLength":5472,"byteOffset":2365648},{"target":34962,"buffer":0,"byteLength":5472,"byteOffset":2371120},{"target":34962,"buffer":0,"byteLength":3648,"byteOffset":2376592},{"target":34963,"buffer":0,"byteLength":4104,"byteOffset":2380240},{"target":34962,"buffer":0,"byteLength":2304,"byteOffset":2384344},{"target":34962,"buffer":0,"byteLength":2304,"byteOffset":2386648},{"target":34962,"buffer":0,"byteLength":1536,"byteOffset":2388952},{"target":34963,"buffer":0,"byteLength":1728,"byteOffset":2390488},{"target":34963,"buffer":0,"byteLength":108,"byteOffset":2392216},{"target":34962,"buffer":0,"byteLength":4680,"byteOffset":2392324},{"target":34962,"buffer":0,"byteLength":4680,"byteOffset":2397004},{"target":34962,"buffer":0,"byteLength":3120,"byteOffset":2401684},{"target":34963,"buffer":0,"byteLength":3456,"byteOffset":2404804},{"target":34963,"buffer":0,"byteLength":216,"byteOffset":2408260},{"target":34962,"buffer":0,"byteLength":540,"byteOffset":2408476},{"target":34962,"buffer":0,"byteLength":540,"byteOffset":2409016},{"target":34962,"buffer":0,"byteLength":360,"byteOffset":2409556},{"target":34963,"buffer":0,"byteLength":468,"byteOffset":2409916},{"target":34962,"buffer":0,"byteLength":15564,"byteOffset":2410384},{"target":34962,"buffer":0,"byteLength":15564,"byteOffset":2425948},{"target":34962,"buffer":0,"byteLength":10376,"byteOffset":2441512},{"target":34963,"buffer":0,"byteLength":14760,"byteOffset":2451888},{"target":34962,"buffer":0,"byteLength":33408,"byteOffset":2466648},{"target":34962,"buffer":0,"byteLength":33408,"byteOffset":2500056},{"target":34962,"buffer":0,"byteLength":22272,"byteOffset":2533464},{"target":34963,"buffer":0,"byteLength":41184,"byteOffset":2555736},{"target":34962,"buffer":0,"byteLength":2220,"byteOffset":2596920},{"target":34962,"buffer":0,"byteLength":2220,"byteOffset":2599140},{"target":34962,"buffer":0,"byteLength":1480,"byteOffset":2601360},{"target":34963,"buffer":0,"byteLength":648,"byteOffset":2602840},{"target":34963,"buffer":0,"byteLength":1188,"byteOffset":2603488},{"target":34962,"buffer":0,"byteLength":4416,"byteOffset":2604676},{"target":34962,"buffer":0,"byteLength":4416,"byteOffset":2609092},{"target":34962,"buffer":0,"byteLength":2944,"byteOffset":2613508},{"target":34963,"buffer":0,"byteLength":4896,"byteOffset":2616452}],"buffers":[{"byteLength":2621348,"uri":"data:application/octet-stream;base64,"}]}